<svg width="1374" height="429" viewBox="0 0 1374 429" fill="none" xmlns="http://www.w3.org/2000/svg">
<path fill-rule="evenodd" clip-rule="evenodd" d="M0 37C0 16.5655 16.5655 0 37 0H576C596.435 0 613 16.5655 613 37V96C613 116.435 629.565 133 650 133H1146C1166.43 133 1183 149.565 1183 170V244C1183 264.435 1199.57 281 1220 281H1337C1357.43 281 1374 297.565 1374 318V392C1374 412.435 1357.43 429 1337 429H860C839.565 429 823 412.435 823 392V318C823 297.565 806.435 281 786 281H239C218.565 281 202 264.435 202 244V185C202 164.565 185.435 148 165 148H37C16.5655 148 0 131.435 0 111V37Z" fill="white"/>
<path d="M75.704 62.864C77.912 64.016 79.64 65.6 80.888 67.616C82.136 69.632 82.76 71.96 82.76 74.6C82.76 78.728 81.296 82.16 78.368 84.896C75.44 87.632 71.864 89 67.64 89H46.04V38.6H66.056C70.184 38.6 73.664 39.944 76.496 42.632C79.376 45.272 80.816 48.584 80.816 52.568C80.816 56.936 79.112 60.368 75.704 62.864ZM66.056 46.376H54.32V59.624H66.056C67.88 59.624 69.416 59 70.664 57.752C71.912 56.456 72.536 54.872 72.536 53C72.536 51.128 71.912 49.568 70.664 48.32C69.416 47.024 67.88 46.376 66.056 46.376ZM67.64 81.224C69.56 81.224 71.168 80.552 72.464 79.208C73.808 77.816 74.48 76.136 74.48 74.168C74.48 72.2 73.808 70.544 72.464 69.2C71.168 67.808 69.56 67.112 67.64 67.112H54.32V81.224H67.64ZM118.345 53H126.121V89H118.345V83.816C115.417 87.896 111.217 89.936 105.745 89.936C100.801 89.936 96.5769 88.112 93.0729 84.464C89.5689 80.768 87.8169 76.28 87.8169 71C87.8169 65.672 89.5689 61.184 93.0729 57.536C96.5769 53.888 100.801 52.064 105.745 52.064C111.217 52.064 115.417 54.08 118.345 58.112V53ZM98.8329 79.28C100.993 81.44 103.705 82.52 106.969 82.52C110.233 82.52 112.945 81.44 115.105 79.28C117.265 77.072 118.345 74.312 118.345 71C118.345 67.688 117.265 64.952 115.105 62.792C112.945 60.584 110.233 59.48 106.969 59.48C103.705 59.48 100.993 60.584 98.8329 62.792C96.6729 64.952 95.5929 67.688 95.5929 71C95.5929 74.312 96.6729 77.072 98.8329 79.28ZM177.808 53H185.584V89H135.184V53H142.96V81.656H156.496V53H164.272V81.656H177.808V53ZM236.863 53H244.639V89H236.863V74.672H220.375V89H212.599V53H220.375V67.328H236.863V53ZM282.173 53H289.949V89H282.173V83.816C279.245 87.896 275.045 89.936 269.573 89.936C264.629 89.936 260.405 88.112 256.901 84.464C253.397 80.768 251.645 76.28 251.645 71C251.645 65.672 253.397 61.184 256.901 57.536C260.405 53.888 264.629 52.064 269.573 52.064C275.045 52.064 279.245 54.08 282.173 58.112V53ZM262.661 79.28C264.821 81.44 267.533 82.52 270.797 82.52C274.061 82.52 276.773 81.44 278.933 79.28C281.093 77.072 282.173 74.312 282.173 71C282.173 67.688 281.093 64.952 278.933 62.792C276.773 60.584 274.061 59.48 270.797 59.48C267.533 59.48 264.821 60.584 262.661 62.792C260.501 64.952 259.421 67.688 259.421 71C259.421 74.312 260.501 77.072 262.661 79.28ZM330.693 81.656H335.517V98.648H327.885V89H303.189V98.648H295.557V81.656H299.949C302.157 78.536 303.261 74.192 303.261 68.624V53H330.693V81.656ZM308.517 81.656H323.061V60.128H310.893V68.624C310.893 73.76 310.101 78.104 308.517 81.656ZM346.547 74.312C347.123 77.048 348.443 79.16 350.507 80.648C352.571 82.088 355.091 82.808 358.067 82.808C362.195 82.808 365.291 81.32 367.355 78.344L373.763 82.088C370.211 87.32 364.955 89.936 357.995 89.936C352.139 89.936 347.411 88.16 343.811 84.608C340.211 81.008 338.411 76.472 338.411 71C338.411 65.624 340.187 61.136 343.739 57.536C347.291 53.888 351.851 52.064 357.419 52.064C362.699 52.064 367.019 53.912 370.379 57.608C373.787 61.304 375.491 65.792 375.491 71.072C375.491 71.888 375.395 72.968 375.203 74.312H346.547ZM346.475 67.976H367.643C367.115 65.048 365.891 62.84 363.971 61.352C362.099 59.864 359.891 59.12 357.347 59.12C354.467 59.12 352.067 59.912 350.147 61.496C348.227 63.08 347.003 65.24 346.475 67.976ZM426.521 89H417.665L405.425 72.368V89H397.793V72.512L385.553 89H376.697L390.737 70.64L377.417 53H386.273L397.793 68.768V53H405.425V68.84L416.945 53H425.801L412.481 70.64L426.521 89ZM456.378 53H464.154V89H456.378V74.672H439.89V89H432.114V53H439.89V67.328H456.378V53ZM488.873 65.24C492.713 65.24 495.857 66.344 498.305 68.552C500.753 70.712 501.977 73.568 501.977 77.12C501.977 80.624 500.753 83.48 498.305 85.688C495.857 87.896 492.713 89 488.873 89H473.177V53H480.953V65.24H488.873ZM506.297 53H514.073V89H506.297V53ZM488.945 82.016C490.481 82.016 491.753 81.56 492.761 80.648C493.817 79.736 494.345 78.56 494.345 77.12C494.345 75.632 493.817 74.456 492.761 73.592C491.753 72.68 490.481 72.224 488.945 72.224H480.953V82.016H488.945ZM529.003 47.96V41.192H549.163V47.96H529.003ZM549.163 53H555.139V89H547.507V66.104L529.075 89H523.099V53H530.731V75.824L549.163 53Z" fill="#1E1E1E"/>
<path d="M896.6 332H902.576V368H894.944V345.104L876.512 368H870.536V332H878.168V354.824L896.6 332ZM955.663 332H961.639V368H954.007V345.104L935.575 368H929.599V332H937.231V354.824L955.663 332ZM994.925 332H1002.7V368H994.925V353.672H978.437V368H970.661V332H978.437V346.328H994.925V332ZM1035.99 332H1043.76V368H1035.99V353.672H1019.5V368H1011.72V332H1019.5V346.328H1035.99V332ZM1069.78 368.936C1064.5 368.936 1060.01 367.112 1056.31 363.464C1052.62 359.816 1050.77 355.328 1050.77 350C1050.77 344.672 1052.62 340.184 1056.31 336.536C1060.01 332.888 1064.5 331.064 1069.78 331.064C1075.11 331.064 1079.59 332.888 1083.24 336.536C1086.94 340.184 1088.79 344.672 1088.79 350C1088.79 355.328 1086.94 359.816 1083.24 363.464C1079.59 367.112 1075.11 368.936 1069.78 368.936ZM1061.79 358.136C1063.95 360.296 1066.61 361.376 1069.78 361.376C1072.95 361.376 1075.61 360.296 1077.77 358.136C1079.93 355.976 1081.01 353.264 1081.01 350C1081.01 346.736 1079.93 344.024 1077.77 341.864C1075.61 339.704 1072.95 338.624 1069.78 338.624C1066.61 338.624 1063.95 339.704 1061.79 341.864C1059.63 344.024 1058.55 346.736 1058.55 350C1058.55 353.264 1059.63 355.976 1061.79 358.136ZM1120.73 349.496C1124.28 351.128 1126.06 353.888 1126.06 357.776C1126.06 360.8 1125.03 363.272 1122.96 365.192C1120.95 367.064 1118.04 368 1114.25 368H1095.82V332H1112.81C1116.51 332 1119.36 332.936 1121.38 334.808C1123.44 336.632 1124.47 339.008 1124.47 341.936C1124.47 345.344 1123.23 347.864 1120.73 349.496ZM1112.23 338.624H1103.23V346.616H1112.23C1115.4 346.616 1116.99 345.272 1116.99 342.584C1116.99 339.944 1115.4 338.624 1112.23 338.624ZM1113.53 361.232C1116.79 361.232 1118.43 359.816 1118.43 356.984C1118.43 355.736 1117.99 354.776 1117.13 354.104C1116.27 353.384 1115.07 353.024 1113.53 353.024H1103.23V361.232H1113.53ZM1160.89 332H1168.67V368H1160.89V362.816C1157.96 366.896 1153.76 368.936 1148.29 368.936C1143.35 368.936 1139.12 367.112 1135.62 363.464C1132.12 359.768 1130.36 355.28 1130.36 350C1130.36 344.672 1132.12 340.184 1135.62 336.536C1139.12 332.888 1143.35 331.064 1148.29 331.064C1153.76 331.064 1157.96 333.08 1160.89 337.112V332ZM1141.38 358.28C1143.54 360.44 1146.25 361.52 1149.52 361.52C1152.78 361.52 1155.49 360.44 1157.65 358.28C1159.81 356.072 1160.89 353.312 1160.89 350C1160.89 346.688 1159.81 343.952 1157.65 341.792C1155.49 339.584 1152.78 338.48 1149.52 338.48C1146.25 338.48 1143.54 339.584 1141.38 341.792C1139.22 343.952 1138.14 346.688 1138.14 350C1138.14 353.312 1139.22 356.072 1141.38 358.28ZM1208.69 360.656H1214.6V377.648H1206.96V368H1177.73V332H1185.51V360.656H1200.92V332H1208.69V360.656ZM1246.97 332H1252.94V368H1245.31V345.104L1226.88 368H1220.9V332H1228.54V354.824L1246.97 332ZM1289.83 332V368H1282.2V355.904H1277.88L1268.73 368H1259.59L1269.31 355.184C1266.81 354.368 1264.8 352.928 1263.26 350.864C1261.77 348.8 1261.03 346.496 1261.03 343.952C1261.03 340.64 1262.21 337.832 1264.56 335.528C1266.96 333.176 1270.03 332 1273.77 332H1289.83ZM1274.21 349.208H1282.2V339.056H1274.21C1272.62 339.056 1271.3 339.512 1270.25 340.424C1269.19 341.336 1268.66 342.584 1268.66 344.168C1268.66 345.704 1269.19 346.928 1270.25 347.84C1271.3 348.752 1272.62 349.208 1274.21 349.208ZM1331.06 368H1322.06L1313.14 355.688L1304.14 368H1295.06L1308.6 349.496L1295.78 332H1304.78L1313.06 343.376L1321.34 332H1330.42L1317.6 349.568L1331.06 368Z" fill="#1E1E1E"/>
<path d="M300.576 196V232H292.8V203.344H276.312V232H268.536V196H300.576ZM338.111 196H345.887V232H338.111V226.816C335.183 230.896 330.983 232.936 325.511 232.936C320.567 232.936 316.343 231.112 312.839 227.464C309.335 223.768 307.583 219.28 307.583 214C307.583 208.672 309.335 204.184 312.839 200.536C316.343 196.888 320.567 195.064 325.511 195.064C330.983 195.064 335.183 197.08 338.111 201.112V196ZM318.599 222.28C320.759 224.44 323.471 225.52 326.735 225.52C329.999 225.52 332.711 224.44 334.871 222.28C337.031 220.072 338.111 217.312 338.111 214C338.111 210.688 337.031 207.952 334.871 205.792C332.711 203.584 329.999 202.48 326.735 202.48C323.471 202.48 320.759 203.584 318.599 205.792C316.439 207.952 315.359 210.688 315.359 214C315.359 217.312 316.439 220.072 318.599 222.28ZM375.326 195.064C380.27 195.064 384.494 196.912 387.998 200.608C391.502 204.256 393.254 208.72 393.254 214C393.254 219.328 391.502 223.816 387.998 227.464C384.494 231.112 380.27 232.936 375.326 232.936C369.854 232.936 365.654 230.92 362.726 226.888V246.4H354.95V196H362.726V201.184C365.654 197.104 369.854 195.064 375.326 195.064ZM365.966 222.28C368.126 224.44 370.838 225.52 374.102 225.52C377.366 225.52 380.078 224.44 382.238 222.28C384.398 220.072 385.478 217.312 385.478 214C385.478 210.688 384.398 207.952 382.238 205.792C380.078 203.584 377.366 202.48 374.102 202.48C370.838 202.48 368.126 203.584 365.966 205.792C363.806 207.952 362.726 210.688 362.726 214C362.726 217.312 363.806 220.072 365.966 222.28ZM426.399 196V203.488H414.663V232H406.887V203.488H395.079V196H426.399ZM455.925 196H463.701V232H455.925V217.672H439.437V232H431.661V196H439.437V210.328H455.925V196ZM478.844 217.312C479.42 220.048 480.74 222.16 482.804 223.648C484.868 225.088 487.388 225.808 490.364 225.808C494.492 225.808 497.588 224.32 499.652 221.344L506.06 225.088C502.508 230.32 497.252 232.936 490.292 232.936C484.436 232.936 479.708 231.16 476.108 227.608C472.508 224.008 470.708 219.472 470.708 214C470.708 208.624 472.484 204.136 476.036 200.536C479.588 196.888 484.148 195.064 489.716 195.064C494.996 195.064 499.316 196.912 502.676 200.608C506.084 204.304 507.788 208.792 507.788 214.072C507.788 214.888 507.692 215.968 507.5 217.312H478.844ZM478.771 210.976H499.94C499.412 208.048 498.188 205.84 496.268 204.352C494.396 202.864 492.188 202.12 489.644 202.12C486.764 202.12 484.364 202.912 482.444 204.496C480.524 206.08 479.3 208.24 478.771 210.976ZM535.006 195.064C539.95 195.064 544.174 196.912 547.678 200.608C551.182 204.256 552.934 208.72 552.934 214C552.934 219.328 551.182 223.816 547.678 227.464C544.174 231.112 539.95 232.936 535.006 232.936C529.534 232.936 525.334 230.92 522.406 226.888V246.4H514.63V196H522.406V201.184C525.334 197.104 529.534 195.064 535.006 195.064ZM525.646 222.28C527.806 224.44 530.518 225.52 533.782 225.52C537.046 225.52 539.758 224.44 541.918 222.28C544.078 220.072 545.158 217.312 545.158 214C545.158 210.688 544.078 207.952 541.918 205.792C539.758 203.584 537.046 202.48 533.782 202.48C530.518 202.48 527.806 203.584 525.646 205.792C523.486 207.952 522.406 210.688 522.406 214C522.406 217.312 523.486 220.072 525.646 222.28ZM602.893 213.496C606.445 215.128 608.221 217.888 608.221 221.776C608.221 224.8 607.189 227.272 605.125 229.192C603.109 231.064 600.205 232 596.413 232H577.981V196H594.973C598.669 196 601.525 196.936 603.541 198.808C605.605 200.632 606.637 203.008 606.637 205.936C606.637 209.344 605.389 211.864 602.893 213.496ZM594.397 202.624H585.397V210.616H594.397C597.565 210.616 599.149 209.272 599.149 206.584C599.149 203.944 597.565 202.624 594.397 202.624ZM595.693 225.232C598.957 225.232 600.589 223.816 600.589 220.984C600.589 219.736 600.157 218.776 599.293 218.104C598.429 217.384 597.229 217.024 595.693 217.024H585.397V225.232H595.693ZM633.048 181.6H641.328V232H633.048V181.6ZM684.159 181.6V189.52H669.975V232H661.695V189.52H647.439V181.6H684.159ZM686.696 213.856V206.368H713.336V213.856H686.696ZM743.271 195.064C748.215 195.064 752.439 196.912 755.943 200.608C759.447 204.256 761.199 208.72 761.199 214C761.199 219.328 759.447 223.816 755.943 227.464C752.439 231.112 748.215 232.936 743.271 232.936C737.799 232.936 733.599 230.92 730.671 226.888V246.4H722.895V196H730.671V201.184C733.599 197.104 737.799 195.064 743.271 195.064ZM733.911 222.28C736.071 224.44 738.783 225.52 742.047 225.52C745.311 225.52 748.023 224.44 750.183 222.28C752.343 220.072 753.423 217.312 753.423 214C753.423 210.688 752.343 207.952 750.183 205.792C748.023 203.584 745.311 202.48 742.047 202.48C738.783 202.48 736.071 203.584 733.911 205.792C731.751 207.952 730.671 210.688 730.671 214C730.671 217.312 731.751 220.072 733.911 222.28ZM796.759 196H804.535V232H796.759V226.816C793.831 230.896 789.631 232.936 784.159 232.936C779.215 232.936 774.991 231.112 771.487 227.464C767.983 223.768 766.231 219.28 766.231 214C766.231 208.672 767.983 204.184 771.487 200.536C774.991 196.888 779.215 195.064 784.159 195.064C789.631 195.064 793.831 197.08 796.759 201.112V196ZM777.247 222.28C779.407 224.44 782.119 225.52 785.383 225.52C788.647 225.52 791.359 224.44 793.519 222.28C795.679 220.072 796.759 217.312 796.759 214C796.759 210.688 795.679 207.952 793.519 205.792C791.359 203.584 788.647 202.48 785.383 202.48C782.119 202.48 779.407 203.584 777.247 205.792C775.087 207.952 774.007 210.688 774.007 214C774.007 217.312 775.087 220.072 777.247 222.28ZM833.831 213.568C837.671 215.296 839.591 218.152 839.591 222.136C839.591 225.208 838.343 227.776 835.847 229.84C833.351 231.904 829.871 232.936 825.407 232.936C818.159 232.936 813.263 230.056 810.719 224.296L817.055 220.552C818.351 224.152 821.159 225.952 825.479 225.952C827.495 225.952 829.079 225.544 830.23 224.728C831.383 223.864 831.959 222.736 831.959 221.344C831.959 220.096 831.503 219.112 830.591 218.392C829.679 217.624 828.407 217.24 826.775 217.24H821.663V210.4H825.479C827.063 210.4 828.287 210.04 829.151 209.32C830.063 208.552 830.519 207.52 830.519 206.224C830.519 204.976 830.015 203.968 829.007 203.2C827.999 202.384 826.655 201.976 824.975 201.976C821.375 201.976 818.879 203.56 817.487 206.728L811.151 203.128C813.839 197.752 818.399 195.064 824.831 195.064C828.863 195.064 832.055 196.096 834.407 198.16C836.807 200.176 838.007 202.648 838.007 205.576C838.007 209.176 836.615 211.84 833.831 213.568ZM866.318 195.064C871.262 195.064 875.486 196.912 878.99 200.608C882.494 204.256 884.246 208.72 884.246 214C884.246 219.328 882.494 223.816 878.99 227.464C875.486 231.112 871.262 232.936 866.318 232.936C860.846 232.936 856.646 230.92 853.718 226.888V246.4H845.942V196H853.718V201.184C856.646 197.104 860.846 195.064 866.318 195.064ZM856.958 222.28C859.118 224.44 861.83 225.52 865.094 225.52C868.358 225.52 871.07 224.44 873.23 222.28C875.39 220.072 876.47 217.312 876.47 214C876.47 210.688 875.39 207.952 873.23 205.792C871.07 203.584 868.358 202.48 865.094 202.48C861.83 202.48 859.118 203.584 856.958 205.792C854.798 207.952 853.718 210.688 853.718 214C853.718 217.312 854.798 220.072 856.958 222.28ZM919.806 196H927.582V232H919.806V226.816C916.878 230.896 912.678 232.936 907.206 232.936C902.262 232.936 898.038 231.112 894.534 227.464C891.03 223.768 889.278 219.28 889.278 214C889.278 208.672 891.03 204.184 894.534 200.536C898.038 196.888 902.262 195.064 907.206 195.064C912.678 195.064 916.878 197.08 919.806 201.112V196ZM900.294 222.28C902.454 224.44 905.166 225.52 908.43 225.52C911.694 225.52 914.406 224.44 916.566 222.28C918.726 220.072 919.806 217.312 919.806 214C919.806 210.688 918.726 207.952 916.566 205.792C914.406 203.584 911.694 202.48 908.43 202.48C905.166 202.48 902.454 203.584 900.294 205.792C898.134 207.952 897.054 210.688 897.054 214C897.054 217.312 898.134 220.072 900.294 222.28ZM953.349 232.936C947.829 232.936 943.317 231.16 939.813 227.608C936.357 224.008 934.629 219.424 934.629 213.856C934.629 207.76 935.541 203.056 937.365 199.744C939.189 196.384 942.885 193.336 948.453 190.6C949.365 190.168 950.709 189.544 952.485 188.728C954.309 187.912 955.557 187.336 956.229 187C956.901 186.616 957.741 186.088 958.749 185.416C959.757 184.696 960.501 183.952 960.981 183.184C961.461 182.368 961.845 181.408 962.133 180.304L968.469 183.976C968.277 185.032 967.965 186.016 967.533 186.928C967.101 187.792 966.477 188.608 965.661 189.376C964.845 190.144 964.125 190.768 963.501 191.248C962.925 191.728 961.941 192.304 960.549 192.976C959.157 193.648 958.125 194.128 957.453 194.416C956.829 194.704 955.629 195.208 953.853 195.928C950.685 197.176 948.357 198.472 946.869 199.816C945.429 201.112 944.421 202.744 943.845 204.712C946.725 201.448 950.637 199.816 955.581 199.816C959.805 199.816 963.477 201.328 966.597 204.352C969.765 207.376 971.349 211.288 971.349 216.088C971.349 220.984 969.669 225.016 966.309 228.184C962.997 231.352 958.677 232.936 953.349 232.936ZM953.277 225.664C956.301 225.664 958.773 224.776 960.693 223C962.613 221.176 963.573 218.872 963.573 216.088C963.573 213.256 962.613 210.928 960.693 209.104C958.821 207.28 956.373 206.368 953.349 206.368C950.661 206.368 948.237 207.232 946.077 208.96C943.917 210.64 942.837 212.896 942.837 215.728C942.837 218.608 943.845 220.984 945.861 222.856C947.877 224.728 950.349 225.664 953.277 225.664ZM994.489 232.936C989.209 232.936 984.721 231.112 981.025 227.464C977.329 223.816 975.481 219.328 975.481 214C975.481 208.672 977.329 204.184 981.025 200.536C984.721 196.888 989.209 195.064 994.489 195.064C999.817 195.064 1004.3 196.888 1007.95 200.536C1011.65 204.184 1013.5 208.672 1013.5 214C1013.5 219.328 1011.65 223.816 1007.95 227.464C1004.3 231.112 999.817 232.936 994.489 232.936ZM986.497 222.136C988.657 224.296 991.321 225.376 994.489 225.376C997.657 225.376 1000.32 224.296 1002.48 222.136C1004.64 219.976 1005.72 217.264 1005.72 214C1005.72 210.736 1004.64 208.024 1002.48 205.864C1000.32 203.704 997.657 202.624 994.489 202.624C991.321 202.624 988.657 203.704 986.497 205.864C984.337 208.024 983.257 210.736 983.257 214C983.257 217.264 984.337 219.976 986.497 222.136ZM1046.63 196V203.488H1034.89V232H1027.11V203.488H1015.31V196H1046.63ZM1083.71 232H1074.42L1059.66 215.368V232H1051.89V196H1059.66V211.912L1073.63 196H1083.14L1067.3 213.64L1083.71 232ZM1092.18 217.312C1092.76 220.048 1094.08 222.16 1096.14 223.648C1098.2 225.088 1100.72 225.808 1103.7 225.808C1107.83 225.808 1110.92 224.32 1112.99 221.344L1119.4 225.088C1115.84 230.32 1110.59 232.936 1103.63 232.936C1097.77 232.936 1093.04 231.16 1089.44 227.608C1085.84 224.008 1084.04 219.472 1084.04 214C1084.04 208.624 1085.82 204.136 1089.37 200.536C1092.92 196.888 1097.48 195.064 1103.05 195.064C1108.33 195.064 1112.65 196.912 1116.01 200.608C1119.42 204.304 1121.12 208.792 1121.12 214.072C1121.12 214.888 1121.03 215.968 1120.84 217.312H1092.18ZM1092.11 210.976H1113.28C1112.75 208.048 1111.52 205.84 1109.6 204.352C1107.73 202.864 1105.52 202.12 1102.98 202.12C1100.1 202.12 1097.7 202.912 1095.78 204.496C1093.86 206.08 1092.64 208.24 1092.11 210.976Z" fill="#1E1E1E"/>
</svg>
