<svg width="21" height="21" viewBox="0 0 21 21" fill="none" xmlns="http://www.w3.org/2000/svg">
<path d="M1 13.2307L11.4079 2.90019C14.5303 -0.198954 17.4792 1.17844 18.5633 2.25453C19.6475 3.33069 21.1653 6.12867 18.5633 8.71128C15.3109 11.9396 10.1069 17.1414 8.15543 19.0783C6.59424 20.6279 4.4693 19.9392 3.60197 19.0783C2.73465 18.2175 2.04079 16.0717 3.60197 14.5222C5.16316 12.9726 9.67324 8.53264 12.0584 6.16524C13.0992 5.13219 14.6604 4.87393 15.3109 5.51958C15.9613 6.16524 16.2215 7.16171 14.6604 8.71128C13.0992 10.2609 8.58909 14.7374 6.20395 17.1048" stroke="white"/>
</svg>
