<svg width="1374" height="429" viewBox="0 0 1374 429" fill="none" xmlns="http://www.w3.org/2000/svg">
<path fill-rule="evenodd" clip-rule="evenodd" d="M0 37C0 16.5655 16.5655 0 37 0H576C596.435 0 613 16.5655 613 37V96C613 116.435 629.565 133 650 133H1146C1166.43 133 1183 149.565 1183 170V244C1183 264.435 1199.57 281 1220 281H1337C1357.43 281 1374 297.565 1374 318V392C1374 412.435 1357.43 429 1337 429H860C839.565 429 823 412.435 823 392V318C823 297.565 806.435 281 786 281H239C218.565 281 202 264.435 202 244V185C202 164.565 185.435 148 165 148H37C16.5655 148 0 131.435 0 111V37Z" fill="white"/>
</svg>
